<svg xmlns="http://www.w3.org/2000/svg" viewBox="0 0 547.46 830.53"><defs><style>.cls-1,.cls-2{isolation:isolate;}.cls-1,.cls-4{font-size:14px;letter-spacing:0.04em;}.cls-1{font-family:OpenSans, Open Sans;}.cls-2,.cls-3{font-size:12px;letter-spacing:0.04em;}.cls-2,.cls-3,.cls-4{fill:#505050;font-family:OpenSans-Light, Open Sans;}.cls-5{font-family:OpenSans-Semibold, Open Sans;font-weight:700;}.cls-6,.cls-8{fill:none;stroke-linejoin:round;}.cls-6{stroke:#faa61a;stroke-width:2px;}.cls-7{fill:#808284;}.cls-8{stroke:#000;}</style></defs><title>non_religious</title><g id="Слой_1" data-name="Слой 1"><text class="cls-1" transform="translate(411.24 670.45)"> </text><text class="cls-2" transform="translate(0 10.28)">кількість <tspan x="0" y="12">організацій</tspan></text><text class="cls-2" transform="translate(355.89 783.49)">Дані: Державний реєстр юросіб</text><text class="cls-3" transform="translate(355.89 411.94)">народні дружини, сільські, <tspan x="0" y="15">селишні ради і виборчі </tspan><tspan x="0" y="30">комісії, що підпадають під </tspan><tspan x="0" y="45">потенційний вплив Москви</tspan></text><text class="cls-4" transform="translate(54.97 60.59)">Громадські організації<tspan x="0" y="38">Сільське, лісове, рибне госп-во</tspan><tspan x="0" y="76">Медицина і соцдопомога</tspan><tspan x="0" y="114">Торгівля і ремонт авто</tspan><tspan x="0" y="152">Будівництво</tspan><tspan x="0" y="190">Наукова та технічна діяльність</tspan><tspan x="0" y="228">Операції з нерухомим майном</tspan><tspan x="0" y="266">Переробна промисловість</tspan><tspan x="0" y="304">Адміністративне обслуговування</tspan><tspan class="cls-5"><tspan x="0" y="342">Держуправління і оборона</tspan></tspan><tspan x="0" y="380">Освіта</tspan><tspan x="0" y="418">Транспорт, склади, пошта</tspan><tspan x="0" y="456">Політичні організації</tspan><tspan x="0" y="494">Інформація та телекомунікації</tspan><tspan x="0" y="532">Мистецтво, спорт, розваги</tspan><tspan x="0" y="570">Профспілки</tspan><tspan x="0" y="608">Ресторани, харчування</tspan><tspan x="0" y="646">Водопостачання, водовідведення</tspan><tspan x="0" y="684">Постачання електроенергії, газу</tspan><tspan x="0" y="722">Добувна промисловість</tspan></text><text class="cls-4" transform="translate(2.2 60.59)">112<tspan x="8.55" y="38">76</tspan><tspan x="8.55" y="76">69</tspan><tspan x="8.55" y="114">59</tspan><tspan x="8.55" y="152">39</tspan><tspan x="8.55" y="190">32</tspan><tspan x="8.55" y="228">27</tspan><tspan x="8.55" y="266">26</tspan><tspan x="8.55" y="304">23</tspan><tspan class="cls-5"><tspan x="8.55" y="342">22</tspan></tspan><tspan x="8.55" y="380">15</tspan><tspan x="8.55" y="418">12</tspan><tspan x="8.55" y="456">12</tspan><tspan x="17.1" y="494">9</tspan><tspan x="17.1" y="532">7</tspan><tspan x="17.1" y="570">6</tspan><tspan x="17.1" y="608">5</tspan><tspan x="17.1" y="646">5</tspan><tspan x="17.1" y="684">2</tspan><tspan x="17.1" y="722">2</tspan></text><line class="cls-6" x1="54.97" y1="68.23" x2="310.64" y2="68.23"/><line class="cls-6" x1="54.97" y1="106.3" x2="228.46" y2="106.3"/><line class="cls-6" x1="54.97" y1="144.37" x2="212.48" y2="144.37"/><line class="cls-6" x1="54.97" y1="182.44" x2="189.65" y2="182.44"/><line class="cls-6" x1="54.97" y1="220.51" x2="143.99" y2="220.51"/><line class="cls-6" x1="54.97" y1="258.58" x2="128.02" y2="258.58"/><line class="cls-6" x1="54.97" y1="296.65" x2="116.6" y2="296.65"/><line class="cls-6" x1="54.97" y1="334.72" x2="114.33" y2="334.72"/><line class="cls-6" x1="54.97" y1="372.79" x2="107.47" y2="372.79"/><line class="cls-6" x1="54.97" y1="410.86" x2="105.19" y2="410.86"/><line class="cls-6" x1="54.97" y1="448.93" x2="87.97" y2="448.93"/><line class="cls-6" x1="54.97" y1="487" x2="82.36" y2="487"/><line class="cls-6" x1="54.97" y1="525.07" x2="82.36" y2="525.07"/><line class="cls-6" x1="54.97" y1="563.14" x2="75.52" y2="563.14"/><line class="cls-6" x1="54.97" y1="601.21" x2="70.94" y2="601.21"/><line class="cls-6" x1="54.97" y1="639.28" x2="68.67" y2="639.28"/><line class="cls-6" x1="54.97" y1="677.35" x2="66.38" y2="677.35"/><line class="cls-6" x1="54.97" y1="715.43" x2="66.38" y2="715.43"/><line class="cls-6" x1="54.97" y1="753.5" x2="59.54" y2="753.5"/><line class="cls-6" x1="54.97" y1="791.57" x2="59.54" y2="791.57"/><path d="M478.58,797.86h-2.81v8h-1.89v-8h-2.83v-1.69h7.53Z" transform="translate(-115.16 -42.61)"/><path d="M479.29,796.17H485v1.69h-3.84v2.25h3.49v1.68h-3.49v2.36h3.91v1.69h-5.8Z" transform="translate(-115.16 -42.61)"/><path d="M488.5,800.92l-2.7-4.75h2.28l1.49,2.79.33,1,.32-1,1.56-2.79h2.06l-2.79,4.66,2.93,5h-2.25l-1.7-3-.37-1-.36,1-1.71,3h-2.06Z" transform="translate(-115.16 -42.61)"/><path d="M501.72,797.86H498.9v8H497v-8h-2.83v-1.69h7.54Z" transform="translate(-115.16 -42.61)"/><path d="M505.43,802.25l-3.17-6.08h2.25l1.77,3.63.19,1h.07l.21-1.05,1.71-3.61h2l-3.16,6.06v3.61h-1.9Z" transform="translate(-115.16 -42.61)"/><path class="cls-7" d="M509.13,804.92a1,1,0,0,1,.31-.76,1.12,1.12,0,0,1,.8-.28,1.18,1.18,0,0,1,.83.28,1,1,0,0,1,.3.76,1,1,0,0,1-.3.78,1.18,1.18,0,0,1-.83.29,1.12,1.12,0,0,1-.8-.29A1,1,0,0,1,509.13,804.92Z" transform="translate(-115.16 -42.61)"/><path class="cls-7" d="M512.2,801a5.74,5.74,0,0,1,1.06-3.72,3.69,3.69,0,0,1,3-1.3,4.27,4.27,0,0,1,1.81.36,3.45,3.45,0,0,1,1.28,1,4.52,4.52,0,0,1,.76,1.59,8.11,8.11,0,0,1,.25,2,5.73,5.73,0,0,1-1.07,3.72,3.72,3.72,0,0,1-3,1.31,4.25,4.25,0,0,1-1.82-.36,3.3,3.3,0,0,1-1.28-1,4.34,4.34,0,0,1-.75-1.59A7.75,7.75,0,0,1,512.2,801Zm2,0a7.06,7.06,0,0,0,.12,1.35,3.48,3.48,0,0,0,.38,1.06,2.05,2.05,0,0,0,.65.69,1.85,1.85,0,0,0,1,.24,1.8,1.8,0,0,0,1.56-.78,4.57,4.57,0,0,0,.55-2.56,6.79,6.79,0,0,0-.12-1.31,3.88,3.88,0,0,0-.36-1.06,2,2,0,0,0-.65-.71,1.81,1.81,0,0,0-1-.26,1.78,1.78,0,0,0-1.56.81A4.54,4.54,0,0,0,514.19,801Z" transform="translate(-115.16 -42.61)"/><path class="cls-7" d="M521.47,796.27l.69-.1c.24,0,.48-.06.73-.08l.71,0h.63a7.42,7.42,0,0,1,1.34.12,3.41,3.41,0,0,1,1.17.43,2.28,2.28,0,0,1,.83.83,2.59,2.59,0,0,1,.31,1.33,3.16,3.16,0,0,1-.55,1.94,2.86,2.86,0,0,1-1.48,1l.68.43,2.21,3.69h-2.19l-2.19-3.79-1-.18v4h-1.9Zm2.9,1.45h-.57a1.91,1.91,0,0,0-.43.06v2.8h.8a2,2,0,0,0,1.25-.36,1.41,1.41,0,0,0,.47-1.19,1.25,1.25,0,0,0-.39-1A1.63,1.63,0,0,0,524.37,797.72Z" transform="translate(-115.16 -42.61)"/><path class="cls-7" d="M532.46,800.8h3.61v4.3a3.59,3.59,0,0,1-1.39.71,5.93,5.93,0,0,1-1.6.22,5.09,5.09,0,0,1-1.72-.29,3.58,3.58,0,0,1-1.37-.91,4.18,4.18,0,0,1-.91-1.56,7,7,0,0,1-.33-2.27,6.15,6.15,0,0,1,.39-2.32,4.31,4.31,0,0,1,1-1.56,4,4,0,0,1,1.44-.87,5.07,5.07,0,0,1,1.63-.27,7.9,7.9,0,0,1,1.46.12,6.89,6.89,0,0,1,1,.27l-.39,1.58a4.11,4.11,0,0,0-.77-.21,6.49,6.49,0,0,0-1.09-.08,3.16,3.16,0,0,0-1.09.18,2.14,2.14,0,0,0-.87.59,2.79,2.79,0,0,0-.56,1,5,5,0,0,0-.2,1.55,5.11,5.11,0,0,0,.19,1.5,3,3,0,0,0,.54,1,2.14,2.14,0,0,0,.81.6,2.45,2.45,0,0,0,1,.19,2.81,2.81,0,0,0,.71-.08,1.64,1.64,0,0,0,.58-.27v-1.83l-2.09-.22Z" transform="translate(-115.16 -42.61)"/><path class="cls-7" d="M536.93,804.92a1,1,0,0,1,.31-.76,1.12,1.12,0,0,1,.8-.28,1.18,1.18,0,0,1,.83.28,1,1,0,0,1,.3.76,1,1,0,0,1-.3.78,1.18,1.18,0,0,1-.83.29,1.12,1.12,0,0,1-.8-.29A1,1,0,0,1,536.93,804.92Z" transform="translate(-115.16 -42.61)"/><path class="cls-7" d="M545.55,796.17h1.79v6.24a4.6,4.6,0,0,1-.25,1.62,3,3,0,0,1-.69,1.12,2.58,2.58,0,0,1-1.07.64,4.47,4.47,0,0,1-1.4.21q-3.67,0-3.67-3.35v-6.48h1.89v6.1a3.73,3.73,0,0,0,.11,1,1.34,1.34,0,0,0,.32.64,1.17,1.17,0,0,0,.55.34,2.57,2.57,0,0,0,.78.11,1.48,1.48,0,0,0,1.25-.49,2.48,2.48,0,0,0,.39-1.56Z" transform="translate(-115.16 -42.61)"/><path class="cls-7" d="M553.17,803.7h-3l-.73,2.14h-1.89l3.48-9.74h1.39l3.48,9.74h-2Zm-2.49-1.52h2.07L552,800l-.29-1.51h-.07l-.29,1.53Z" transform="translate(-115.16 -42.61)"/><path class="cls-8" d="M463.13,447.43c-16.39-21.9-63-20.07-78.79-7" transform="translate(-115.16 -42.61)"/><polygon points="269.34 392.57 270.33 392.73 269.52 397.6 274.43 398.05 274.34 399.05 268.36 398.49 269.34 392.57"/></g></svg>